# xmcd
#
# Track frame offsets:
#	150
#	21953
#	39335
#	55813
#	77555
#	97056
#	117152
#	146075
#	160209
#	179893
#	200420
#	220755
#	242708
#	250165
#	269270
#	286971
#	301757
#	316119
#	330780
#
# Disc length: 4604 seconds
#
# Revision: 0
# Processed by: cddbd v1.5.1PL0 Copyright (c) Steve Scherf et al.
# Submitted via: audiograbber 1.83.01
#
DISCID=0711fa13
DTITLE=Various Artist - Клон. [CD 1)
DYEAR=1900
DGENRE=
TTITLE0=Amr Diab. - Habibi.
TTITLE1=Sting. - Desert Rose.
TTITLE2=Faudel. - Woulli.
TTITLE3=Mustafa Sandal. - Araba.
TTITLE4=Andy. - Yo-Yo.
TTITLE5=Dalida. - Salma Ya Salma.
TTITLE6=Karunesh. - Panjabi.
TTITLE7=Ofra Haza. - Galibi.
TTITLE8=Traintafullos. - Monoxe.
TTITLE9=Natasha Atlas. - When I Close My Eyes.
TTITLE10=Tarkan. - Du-Du.
TTITLE11=Hisham Abbas. - Feno.
TTITLE12=East Melody. - Feride.
TTITLE13=Antique. - Dis Mou.
TTITLE14=Rafet El Roman. - Senin Sveidrum.
TTITLE15=Setora. - Vifotoring.
TTITLE16=Rafet El Roman. - Elimde Degil.
TTITLE17=Aida Pekkan. - Bir Gunah Gibi.
TTITLE18=Jose Alberto. - Mi Gran Amor Le Di.
EXTD=
EXTT0=
EXTT1=
EXTT2=
EXTT3=
EXTT4=
EXTT5=
EXTT6=
EXTT7=
EXTT8=
EXTT9=
EXTT10=
EXTT11=
EXTT12=
EXTT13=
EXTT14=
EXTT15=
EXTT16=
EXTT17=
EXTT18=
PLAYORDER=
